<svg x="0px" y="0px"
     width="186px" height="58px" id="Calque_1" data-name="Calque 1" xmlns="http://www.w3.org/2000/svg" viewBox="0 0 200 62.26"><defs><style>.cls-1{fill:#f6a608;}.cls-2{fill:#eb660b;}.cls-3{fill:#55290c;}</style></defs><title>logo_sans-baseline_200px-large-01</title><path class="cls-1" d="M194.78,40.23A5.82,5.82,0,0,0,192.11,38a16.82,16.82,0,0,0-3.58-1.13,9.35,9.35,0,0,1-2.76-.92,1,1,0,0,1-.41-.39.38.38,0,0,1-.08-.3,1.17,1.17,0,0,1,.61-.87,3.82,3.82,0,0,1,2.26-.68,6.47,6.47,0,0,1,3.47,1.39,2,2,0,0,0,2.79-.52,2.08,2.08,0,0,0-.61-2.79,9.66,9.66,0,0,0-5.65-2.08,8.07,8.07,0,0,0-4.64,1.4,5.29,5.29,0,0,0-2.22,4.14,4.53,4.53,0,0,0,.64,2.38,5.59,5.59,0,0,0,2.6,2.16,18.53,18.53,0,0,0,3.28,1,8.88,8.88,0,0,1,3.05,1.08,1.72,1.72,0,0,1,.51.45.64.64,0,0,1,.1.4,1.54,1.54,0,0,1-.68,1.13,5,5,0,0,1-2.57.72,6.94,6.94,0,0,1-4.14-1.66,2,2,0,0,0-2.83.3,2,2,0,0,0,.26,2.79,11,11,0,0,0,6.71,2.6,8.5,8.5,0,0,0,4.9-1.51,5.43,5.43,0,0,0,2.38-4.37A4.83,4.83,0,0,0,194.78,40.23Z"/><path class="cls-1" d="M177.37,29.79a8.31,8.31,0,0,0-4.77,1.47,10.78,10.78,0,0,0-.82.75v-.26a2,2,0,0,0-2.06-2,2,2,0,0,0-2,2V46.6a2,2,0,0,0,2,2,2,2,0,0,0,2.06-2V39.44a12.06,12.06,0,0,1,1.57-3.17,5.68,5.68,0,0,1,1.75-1.8,3.55,3.55,0,0,1,2.26-.72,2,2,0,0,0,2-2A2,2,0,0,0,177.37,29.79Z"/><path class="cls-1" d="M156.88,29.75a9.43,9.43,0,0,0,0,18.85,9.51,9.51,0,0,0,6.74-2.49,1.72,1.72,0,0,0,0-2.45,2.14,2.14,0,0,0-2.83.12,6.21,6.21,0,0,1-3.92.94,5.84,5.84,0,0,1-3.62-1.7,5.35,5.35,0,0,1-1.28-2.5h12a1.85,1.85,0,0,0,2-1.5,1,1,0,0,0,.07-.33V38.5A9,9,0,0,0,156.88,29.75Zm-5.12,7.59a5.17,5.17,0,0,1,5.09-4,6.11,6.11,0,0,1,5.58,4Z"/><path class="cls-1" d="M136.77,29.75a9.55,9.55,0,0,0-5.13,1.55,2.05,2.05,0,0,0-2.06-1.55,2,2,0,0,0-2,2v21.9a2,2,0,0,0,2,2,2.08,2.08,0,0,0,2.09-2V47a8.83,8.83,0,0,0,5.09,1.54,9.41,9.41,0,0,0,0-18.81ZM140.31,43a4.83,4.83,0,0,1-3.54,1.58A4.67,4.67,0,0,1,133.19,43a5,5,0,0,1-1.47-3.77,5.28,5.28,0,0,1,1.47-3.81,4.74,4.74,0,0,1,3.58-1.55,4.91,4.91,0,0,1,3.54,1.55,5.79,5.79,0,0,1,1.47,3.81A5.49,5.49,0,0,1,140.31,43Z"/><path class="cls-1" d="M118,29.75a7.75,7.75,0,0,0-5.91,2.6,7.82,7.82,0,0,0-5.92-2.6,8,8,0,0,0-4,1.13,1.94,1.94,0,0,0-1.82-1.13,2,2,0,0,0-2,2V46.6a2.06,2.06,0,0,0,1.63,2c.11,0,.25,0,.4,0a2.32,2.32,0,0,0,1.92-1.2v-.19a.26.26,0,0,1,.09-.23V37.67a3.85,3.85,0,0,1,7.7-.11v9a2.07,2.07,0,0,0,2,2,2,2,0,0,0,2-2v-9a4,4,0,0,1,4-3.77,3.89,3.89,0,0,1,3.84,3.88V46.6a2,2,0,0,0,2,2,2,2,0,0,0,2-2V37.67A7.88,7.88,0,0,0,118,29.75Z"/><path class="cls-1" d="M94.57,29.75a2.08,2.08,0,0,0-2,1.66,8.6,8.6,0,0,0-5-1.66,8.71,8.71,0,0,0-6.42,2.83,9.52,9.52,0,0,0-2.56,6.64,9.64,9.64,0,0,0,2.56,6.63,8.73,8.73,0,0,0,6.41,2.75,8.54,8.54,0,0,0,5-1.62,2.09,2.09,0,0,0,2,1.62,2,2,0,0,0,2-2V31.79A2.06,2.06,0,0,0,94.57,29.75ZM91.06,43.1a4.86,4.86,0,0,1-3.5,1.47,4.77,4.77,0,0,1-3.51-1.47,5.63,5.63,0,0,1-1.43-3.88,5.5,5.5,0,0,1,1.43-3.89,4.54,4.54,0,0,1,3.51-1.54,4.63,4.63,0,0,1,3.5,1.54,5.52,5.52,0,0,1,1.47,3.89A5.66,5.66,0,0,1,91.06,43.1Z"/><path class="cls-1" d="M73.59,43.4A6.07,6.07,0,0,1,70,44.61a5.41,5.41,0,1,1,0-10.82A6.06,6.06,0,0,1,73.59,35a2,2,0,0,0,2.83-.37A2.07,2.07,0,0,0,76,31.83a9.89,9.89,0,0,0-6-2.08A9.43,9.43,0,1,0,70,48.6a10.37,10.37,0,0,0,6-2,2.08,2.08,0,0,0,.42-2.79A2.06,2.06,0,0,0,73.59,43.4Z"/><path class="cls-2" d="M56.7,29.61a1.94,1.94,0,0,0-2,2v15a1.94,1.94,0,0,0,2,2,2,2,0,0,0,2-2v-15A2,2,0,0,0,56.7,29.61Z"/><path class="cls-2" d="M47.25,38.3l5.22-5.2h0a2,2,0,0,0,0-2.84,2,2,0,0,0-1.43-.6,2,2,0,0,0-1.42.6l-7.2,7.22V31.65a2,2,0,1,0-4,0V46.54a2,2,0,1,0,4,0V43.18l2-2,5.07,6.64,0,0a2,2,0,0,0,1.51.72,1.92,1.92,0,0,0,1.29-.47A2,2,0,0,0,53,46.7a1.94,1.94,0,0,0-.46-1.44Z"/><path class="cls-2" d="M34.61,29.61a2,2,0,0,0-2,2v15a2,2,0,0,0,2,2,2,2,0,0,0,2-2v-15A2,2,0,0,0,34.61,29.61Z"/><path class="cls-2" d="M30.59,30.67a2,2,0,0,0-1.07-1,2,2,0,0,0-1.53,0,1.94,1.94,0,0,0-1.08,1.08L22.49,41.14l-2.72-6.47s-.8-1.25-1.89-1.25A2,2,0,0,0,16,34.67l-2.72,6.47L8.85,30.7a1.91,1.91,0,0,0-1.08-1.08,2,2,0,0,0-1.52,0,1.93,1.93,0,0,0-1.08,1,2,2,0,0,0,0,1.55l6.28,14.91c.38.91.94,1.66,1.87,1.66s1.44-.73,1.79-1.67l2.79-6.61,2.79,6.61c.35.94.86,1.67,1.79,1.67S24,48,24.33,47.13l6.28-14.91A1.94,1.94,0,0,0,30.59,30.67Z"/><path class="cls-3" d="M61.47,24.24c5.88-6.15-.86-13-.86-13H51.54c-3.4,0-3.06,2.07-3.06,2.07v5.82H25.28v5H29.9v.08a4.77,4.77,0,1,1,9.53,0v-.08H52v.08a4.76,4.76,0,1,1,9.52,0Z"/><path class="cls-3" d="M38.47,24.39a3.81,3.81,0,1,0-3.8,3.81,3.8,3.8,0,0,0,3.8-3.81m-1.82,0a2,2,0,1,1-2-2,2,2,0,0,1,2,2"/><path class="cls-3" d="M60.61,24.39A3.81,3.81,0,1,0,56.8,28.2a3.81,3.81,0,0,0,3.81-3.81m-1.83,0a2,2,0,1,1-2-2,2,2,0,0,1,2,2"/><path class="cls-3" d="M40.88,13.94c0,.25-.38.3-.86.3H31.31c-.48,0-.92-.05-.92-.3V9.38c0-.25.44-.34.92-.34H40c.48,0,.86.09.86.34ZM58.41,8.4,55,4.14H29.34c-4.73,0-4.06,2.34-4.06,2.34V17H46.46V12.18c0-3.18,3.38-3,3.38-3h7.6c1.22,0,1-.74,1-.74"/></svg>